<mxfile host="app.diagrams.net" modified="2023-07-04T19:18:47.706Z" agent="Mozilla/5.0 (Windows NT 10.0; Win64; x64) AppleWebKit/537.36 (KHTML, like Gecko) Chrome/114.0.0.0 Safari/537.36" etag="coQI6Dt6hEMFy5LHNiW8" version="21.5.2" type="github">
  <diagram name="Page-1" id="9B2FrqlO3O0PhIjn9zHE">
    <mxGraphModel dx="1948" dy="534" grid="1" gridSize="10" guides="1" tooltips="1" connect="1" arrows="1" fold="1" page="1" pageScale="1" pageWidth="850" pageHeight="1100" math="0" shadow="0">
      <root>
        <mxCell id="0" />
        <mxCell id="1" parent="0" />
        <mxCell id="-9dhcDxef-u13hbrz7UL-12" value="" style="sketch=0;aspect=fixed;pointerEvents=1;shadow=0;dashed=0;html=1;strokeColor=none;labelPosition=center;verticalLabelPosition=bottom;verticalAlign=top;align=center;fillColor=#00188D;shape=mxgraph.mscae.enterprise.usb" vertex="1" parent="1">
          <mxGeometry x="530" y="510" width="50" height="23" as="geometry" />
        </mxCell>
        <mxCell id="-9dhcDxef-u13hbrz7UL-13" value="" style="sketch=0;aspect=fixed;pointerEvents=1;shadow=0;dashed=0;html=1;strokeColor=none;labelPosition=center;verticalLabelPosition=bottom;verticalAlign=top;align=center;fillColor=#00188D;shape=mxgraph.mscae.enterprise.usb" vertex="1" parent="1">
          <mxGeometry x="331" y="411" width="50" height="23" as="geometry" />
        </mxCell>
        <mxCell id="-9dhcDxef-u13hbrz7UL-15" value="" style="sketch=0;pointerEvents=1;shadow=0;dashed=0;html=1;strokeColor=none;labelPosition=center;verticalLabelPosition=bottom;verticalAlign=top;align=center;fillColor=#505050;shape=mxgraph.mscae.intune.client_software" vertex="1" parent="1">
          <mxGeometry x="570" y="400" width="50" height="45" as="geometry" />
        </mxCell>
        <mxCell id="-9dhcDxef-u13hbrz7UL-16" value="" style="sketch=0;pointerEvents=1;shadow=0;dashed=0;html=1;strokeColor=none;labelPosition=center;verticalLabelPosition=bottom;verticalAlign=top;align=center;fillColor=#515151;shape=mxgraph.mscae.system_center.central_administration_site_sql" vertex="1" parent="1">
          <mxGeometry x="417.5" y="440" width="38" height="50" as="geometry" />
        </mxCell>
        <mxCell id="-9dhcDxef-u13hbrz7UL-17" value="" style="image;sketch=0;aspect=fixed;html=1;points=[];align=center;fontSize=12;image=img/lib/mscae/SQL_Database_generic.svg;" vertex="1" parent="1">
          <mxGeometry x="290" y="370" width="38" height="50" as="geometry" />
        </mxCell>
        <mxCell id="-9dhcDxef-u13hbrz7UL-18" value="" style="image;sketch=0;aspect=fixed;html=1;points=[];align=center;fontSize=12;image=img/lib/mscae/API_Management.svg;" vertex="1" parent="1">
          <mxGeometry x="210" y="434" width="50" height="42" as="geometry" />
        </mxCell>
        <mxCell id="-9dhcDxef-u13hbrz7UL-19" value="" style="image;sketch=0;aspect=fixed;html=1;points=[];align=center;fontSize=12;image=img/lib/mscae/Exchange_On_premises_Access.svg;" vertex="1" parent="1">
          <mxGeometry x="700" y="340" width="28.999999999999996" height="50" as="geometry" />
        </mxCell>
        <mxCell id="-9dhcDxef-u13hbrz7UL-23" value="" style="group" vertex="1" connectable="0" parent="1">
          <mxGeometry x="760" y="30" width="170" height="160" as="geometry" />
        </mxCell>
        <mxCell id="-9dhcDxef-u13hbrz7UL-22" value="&lt;b&gt;&lt;br&gt;&lt;br&gt;&lt;/b&gt;" style="rounded=0;whiteSpace=wrap;html=1;" vertex="1" parent="-9dhcDxef-u13hbrz7UL-23">
          <mxGeometry width="170" height="160" as="geometry" />
        </mxCell>
        <mxCell id="-9dhcDxef-u13hbrz7UL-24" value="&lt;span style=&quot;font-size: 14px;&quot;&gt;&lt;b&gt;Microservices 1 - CMS&lt;/b&gt;&lt;/span&gt;" style="text;html=1;strokeColor=none;fillColor=none;align=center;verticalAlign=middle;whiteSpace=wrap;rounded=0;" vertex="1" parent="-9dhcDxef-u13hbrz7UL-23">
          <mxGeometry x="10" y="6" width="150" height="30" as="geometry" />
        </mxCell>
        <mxCell id="-9dhcDxef-u13hbrz7UL-34" value="" style="image;aspect=fixed;perimeter=ellipsePerimeter;html=1;align=center;shadow=0;dashed=0;fontColor=#4277BB;labelBackgroundColor=default;fontSize=12;spacingTop=3;image=img/lib/ibm/management/content_management.svg;" vertex="1" parent="-9dhcDxef-u13hbrz7UL-23">
          <mxGeometry x="40" y="50" width="60" height="60" as="geometry" />
        </mxCell>
        <mxCell id="-9dhcDxef-u13hbrz7UL-35" value="Node Application - Directus" style="text;html=1;strokeColor=none;fillColor=none;align=center;verticalAlign=middle;whiteSpace=wrap;rounded=0;container=0;" vertex="1" parent="-9dhcDxef-u13hbrz7UL-23">
          <mxGeometry y="120" width="167" height="30" as="geometry" />
        </mxCell>
        <mxCell id="-9dhcDxef-u13hbrz7UL-25" value="" style="group" vertex="1" connectable="0" parent="1">
          <mxGeometry x="-40" y="140" width="180" height="180" as="geometry" />
        </mxCell>
        <mxCell id="-9dhcDxef-u13hbrz7UL-6" value="" style="whiteSpace=wrap;html=1;aspect=fixed;" vertex="1" parent="-9dhcDxef-u13hbrz7UL-25">
          <mxGeometry width="180" height="180" as="geometry" />
        </mxCell>
        <mxCell id="-9dhcDxef-u13hbrz7UL-4" value="" style="shadow=0;dashed=0;html=1;strokeColor=none;fillColor=#4495D1;labelPosition=center;verticalLabelPosition=bottom;verticalAlign=top;align=center;outlineConnect=0;shape=mxgraph.veeam.2d.web_ui;" vertex="1" parent="-9dhcDxef-u13hbrz7UL-25">
          <mxGeometry x="55" y="60" width="70" height="70" as="geometry" />
        </mxCell>
        <mxCell id="-9dhcDxef-u13hbrz7UL-5" value="&lt;b&gt;&lt;font style=&quot;font-size: 14px;&quot;&gt;Client Web Application&lt;/font&gt;&lt;/b&gt;" style="text;html=1;strokeColor=none;fillColor=none;align=center;verticalAlign=middle;whiteSpace=wrap;rounded=0;" vertex="1" parent="-9dhcDxef-u13hbrz7UL-25">
          <mxGeometry x="13.5" y="10" width="157.5" height="30" as="geometry" />
        </mxCell>
        <mxCell id="-9dhcDxef-u13hbrz7UL-7" value="Asp .Netcore Razor Pages" style="text;html=1;strokeColor=none;fillColor=none;align=center;verticalAlign=middle;whiteSpace=wrap;rounded=0;" vertex="1" parent="-9dhcDxef-u13hbrz7UL-25">
          <mxGeometry x="24" y="140" width="145" height="30" as="geometry" />
        </mxCell>
        <mxCell id="-9dhcDxef-u13hbrz7UL-26" value="" style="group" vertex="1" connectable="0" parent="1">
          <mxGeometry x="241" y="133" width="190" height="190" as="geometry" />
        </mxCell>
        <mxCell id="-9dhcDxef-u13hbrz7UL-9" value="" style="whiteSpace=wrap;html=1;aspect=fixed;" vertex="1" parent="-9dhcDxef-u13hbrz7UL-26">
          <mxGeometry width="190" height="190" as="geometry" />
        </mxCell>
        <mxCell id="-9dhcDxef-u13hbrz7UL-8" value="" style="sketch=0;points=[[0,0,0],[0.25,0,0],[0.5,0,0],[0.75,0,0],[1,0,0],[0,1,0],[0.25,1,0],[0.5,1,0],[0.75,1,0],[1,1,0],[0,0.25,0],[0,0.5,0],[0,0.75,0],[1,0.25,0],[1,0.5,0],[1,0.75,0]];outlineConnect=0;fontColor=#232F3E;gradientColor=#FF4F8B;gradientDirection=north;fillColor=#BC1356;strokeColor=#ffffff;dashed=0;verticalLabelPosition=bottom;verticalAlign=top;align=center;html=1;fontSize=12;fontStyle=0;aspect=fixed;shape=mxgraph.aws4.resourceIcon;resIcon=mxgraph.aws4.api_gateway;" vertex="1" parent="-9dhcDxef-u13hbrz7UL-26">
          <mxGeometry x="40" y="46" width="100" height="100" as="geometry" />
        </mxCell>
        <mxCell id="-9dhcDxef-u13hbrz7UL-10" value="&lt;b&gt;&lt;font style=&quot;font-size: 14px;&quot;&gt;API Gateway&lt;/font&gt;&lt;/b&gt;" style="text;html=1;strokeColor=none;fillColor=none;align=center;verticalAlign=middle;whiteSpace=wrap;rounded=0;" vertex="1" parent="-9dhcDxef-u13hbrz7UL-26">
          <mxGeometry x="41" y="10" width="100" height="30" as="geometry" />
        </mxCell>
        <mxCell id="-9dhcDxef-u13hbrz7UL-11" value="Asp .Netcore Webhost - Oceleto .Net" style="text;html=1;strokeColor=none;fillColor=none;align=center;verticalAlign=middle;whiteSpace=wrap;rounded=0;" vertex="1" parent="-9dhcDxef-u13hbrz7UL-26">
          <mxGeometry x="13" y="153" width="167" height="30" as="geometry" />
        </mxCell>
        <mxCell id="-9dhcDxef-u13hbrz7UL-14" value="" style="sketch=0;aspect=fixed;pointerEvents=1;shadow=0;dashed=0;html=1;strokeColor=none;labelPosition=center;verticalLabelPosition=bottom;verticalAlign=top;align=center;fillColor=#00188D;shape=mxgraph.mscae.enterprise.plug_and_play;container=0;" vertex="1" parent="1">
          <mxGeometry x="680" y="470" width="40" height="50" as="geometry" />
        </mxCell>
        <mxCell id="-9dhcDxef-u13hbrz7UL-33" value="" style="group" vertex="1" connectable="0" parent="1">
          <mxGeometry x="520" y="140" width="175" height="170" as="geometry" />
        </mxCell>
        <mxCell id="-9dhcDxef-u13hbrz7UL-27" value="" style="whiteSpace=wrap;html=1;aspect=fixed;container=0;" vertex="1" parent="-9dhcDxef-u13hbrz7UL-33">
          <mxGeometry width="170" height="170" as="geometry" />
        </mxCell>
        <mxCell id="-9dhcDxef-u13hbrz7UL-28" value="" style="image;aspect=fixed;perimeter=ellipsePerimeter;html=1;align=center;shadow=0;dashed=0;fontColor=#4277BB;labelBackgroundColor=default;fontSize=12;spacingTop=3;image=img/lib/ibm/infrastructure/mobile_backend.svg;container=0;" vertex="1" parent="-9dhcDxef-u13hbrz7UL-33">
          <mxGeometry x="55" y="61" width="60" height="60" as="geometry" />
        </mxCell>
        <mxCell id="-9dhcDxef-u13hbrz7UL-29" value="&lt;b&gt;&lt;font style=&quot;font-size: 14px;&quot;&gt;Backend for &lt;br&gt;Frontend Web&lt;/font&gt;&lt;/b&gt;" style="text;html=1;strokeColor=none;fillColor=none;align=center;verticalAlign=middle;whiteSpace=wrap;rounded=0;container=0;" vertex="1" parent="-9dhcDxef-u13hbrz7UL-33">
          <mxGeometry x="5" y="20" width="165" height="21" as="geometry" />
        </mxCell>
        <mxCell id="-9dhcDxef-u13hbrz7UL-30" value="Asp .Netcore Web API" style="text;html=1;strokeColor=none;fillColor=none;align=center;verticalAlign=middle;whiteSpace=wrap;rounded=0;container=0;" vertex="1" parent="-9dhcDxef-u13hbrz7UL-33">
          <mxGeometry x="1.5" y="130" width="167" height="30" as="geometry" />
        </mxCell>
        <mxCell id="-9dhcDxef-u13hbrz7UL-37" value="" style="group" vertex="1" connectable="0" parent="1">
          <mxGeometry x="810" y="370" width="170" height="160" as="geometry" />
        </mxCell>
        <mxCell id="-9dhcDxef-u13hbrz7UL-36" value="&lt;b&gt;&lt;br&gt;&lt;br&gt;&lt;/b&gt;" style="rounded=0;whiteSpace=wrap;html=1;" vertex="1" parent="-9dhcDxef-u13hbrz7UL-37">
          <mxGeometry width="170" height="160" as="geometry" />
        </mxCell>
        <mxCell id="-9dhcDxef-u13hbrz7UL-20" value="" style="image;sketch=0;aspect=fixed;html=1;points=[];align=center;fontSize=12;image=img/lib/mscae/App_Services.svg;" vertex="1" parent="-9dhcDxef-u13hbrz7UL-37">
          <mxGeometry x="50" y="62" width="50" height="50" as="geometry" />
        </mxCell>
        <mxCell id="-9dhcDxef-u13hbrz7UL-38" value="&lt;span style=&quot;font-size: 14px;&quot;&gt;&lt;b&gt;Microservice 2&lt;/b&gt;&lt;/span&gt;" style="text;html=1;strokeColor=none;fillColor=none;align=center;verticalAlign=middle;whiteSpace=wrap;rounded=0;container=0;" vertex="1" parent="-9dhcDxef-u13hbrz7UL-37">
          <mxGeometry x="-10" y="10" width="165" height="21" as="geometry" />
        </mxCell>
      </root>
    </mxGraphModel>
  </diagram>
</mxfile>
